<?xml version="1.0" encoding="UTF-8"?>
<svg width="54px" height="54px" viewBox="0 0 54 54" version="1.1" xmlns="http://www.w3.org/2000/svg" xmlns:xlink="http://www.w3.org/1999/xlink">
    <title>np_close_996783_000000</title>
    <g id="Page-1" stroke="none" stroke-width="1" fill="none" fill-rule="evenodd">
        <g id="np_close_996783_000000" fill="#FFFFFF" fill-rule="nonzero">
            <path d="M51.621,43.312 L35.297,26.996 L51.609,10.672 C53.4918,8.797 53.4918,5.7814 51.616813,3.8986 L50.101213,2.3791 C49.210593,1.46504 47.991813,0.9689 46.710613,0.9689 L46.7028,0.9689 C45.4216,0.9689 44.2184,1.47281 43.32,2.3751 L27,18.7071 L10.676,2.3951 C8.8049,0.5201 5.7932,0.5123 3.9104,2.387288 L2.3909,3.891188 C1.47684,4.789628 0.9768,6.008388 0.9768,7.285688 C0.9768,8.570888 1.48071,9.777888 2.383,10.680188 L18.715,27.000188 L2.399,43.324188 C0.5162,45.199188 0.5162,48.214788 2.391187,50.101488 L3.906787,51.617088 C4.805227,52.531148 6.020087,53.027288 7.301287,53.027288 C8.574687,53.027288 9.793487,52.519478 10.691887,51.621088 L27.007887,35.293088 L43.327887,51.602088 C44.253667,52.535678 45.484087,53.008288 46.718487,53.008288 C47.941187,53.008288 49.163787,52.543448 50.101287,51.609888 L51.616887,50.098188 C52.534857,49.207568 53.0310765,47.988788 53.0310765,46.707588 C53.038799,45.426388 52.534897,44.215388 51.632587,43.313088 L51.621,43.312 Z" id="Path"></path>
        </g>
    </g>
</svg>