<?xml version="1.0" encoding="UTF-8"?>
<svg width="84px" height="84px" viewBox="0 0 84 84" version="1.1" xmlns="http://www.w3.org/2000/svg" xmlns:xlink="http://www.w3.org/1999/xlink">
    <title>np_call-app-icon_780130_000000</title>
    <g id="Page-1" stroke="none" stroke-width="1" fill="none" fill-rule="evenodd">
        <g id="np_call-app-icon_780130_000000" fill="#CE5833" fill-rule="nonzero">
            <path d="M78.418,56.75 L69.336,50.082 C66.504,48.082 62.918,48.164 60.668,50.41403 L55.586,55.49603 C54.504,56.57803 52.668,56.57803 51.004,55.578061 C43.422,50.910061 33.004,40.578061 28.254,32.996061 C27.254,31.414061 27.33603,29.578061 28.336032,28.578061 L33.418032,23.496061 C35.668032,21.246061 35.836032,17.664061 33.750062,14.828061 L27.082062,5.746061 C24.832062,2.746061 21.500062,0.828061 17.914062,0.578061 C14.832062,0.328061 12.082062,1.328061 10.082062,3.328061 L5.667962,7.831961 C-1.000038,14.499961 -1.500038,25.663961 4.585962,34.413961 C14.667962,49.081961 34.917962,69.163961 49.667962,79.245961 C53.835962,82.077961 58.499962,83.495961 62.999962,83.495961 C68.081962,83.495961 72.831962,81.745961 76.417962,78.245961 L80.835962,73.827961 C82.835962,71.827961 83.835962,68.995961 83.667962,65.995961 C83.332022,62.331861 81.417962,58.999861 78.417962,56.749861 L78.418,56.75 Z M77.418,70.25 L73,74.668 C68,79.668 59.418,79.836 52.5,75.168 C38.082,65.418 18.418,45.832 8.582,31.582 C3.914,24.75 4.082,16.25 9.082,11.25 L13.582,6.832 C14.49997,5.91403 15.75,5.414 17.164,5.414 L17.664,5.414 C19.746,5.58197 21.832,6.746 23.246,8.582 L29.914,17.664 C30.49603,18.49603 30.58197,19.414 30.08197,19.914 L24.99997,24.996 C22.33197,27.664 21.99997,31.996 24.16794,35.496 C29.24994,43.746 40.16794,54.578 48.49994,59.664 C51.99994,61.832 56.33194,61.496 58.99994,58.83197 L64.08194,53.74997 C64.58194,53.24997 65.58194,53.332 66.41394,53.91794 L75.49594,60.58594 C77.32794,61.91794 78.57794,64.00394 78.74594,66.08594 C78.831877,67.83204 78.41782,69.25004 77.41784,70.25004 L77.418,70.25 Z" id="Shape"></path>
        </g>
    </g>
</svg>