<?xml version="1.0" encoding="UTF-8"?>
<svg width="24px" height="17px" viewBox="0 0 24 17" version="1.1" xmlns="http://www.w3.org/2000/svg" xmlns:xlink="http://www.w3.org/1999/xlink">
    <title>np_email_1569817_000000</title>
    <g id="Page-1" stroke="none" stroke-width="1" fill="none" fill-rule="evenodd">
        <g id="np_email_1569817_000000" fill="#CE5833" fill-rule="nonzero">
            <path d="M0.818181818,0 C0.366490909,0 0,0.366490909 0,0.818181818 L0,15.5454545 C0,15.9971455 0.366490909,16.3636364 0.818181818,16.3636364 L23.1818182,16.3636364 C23.6335091,16.3636364 24,15.9971455 24,15.5454545 L24,0.818181818 C24,0.366490909 23.6335091,0 23.1818182,0 L0.818181818,0 Z M3.13636364,1.63636364 L20.8636364,1.63636364 L12,8.76981818 L3.13636364,1.63636364 Z M1.63636364,2.52272727 L11.4886364,10.4487273 C11.7880091,10.6873636 12.2119909,10.6873636 12.5113636,10.4487273 L22.3636364,2.52272727 L22.3636364,14.7272727 L1.63636364,14.7272727 L1.63636364,2.52272727 Z" id="Shape"></path>
        </g>
    </g>
</svg>