<?xml version="1.0" encoding="UTF-8"?>
<svg width="100pt" height="100pt" version="1.1" viewBox="0 0 100 100" xmlns="http://www.w3.org/2000/svg">
 <g>
  <path d="m63.199 20.699h-45.898c-2.1016 0-3.8008-1.6992-3.8008-3.8008 0-2.1016 1.6992-3.8008 3.8008-3.8008h45.898c2.1016 0 3.8008 1.6992 3.8008 3.8008 0 2.1016-1.6992 3.8008-3.8008 3.8008z"/>
  <path d="m83 53.699h-65.699c-2.1016 0-3.8008-1.6992-3.8008-3.8008 0-2.1016 1.6992-3.8008 3.8008-3.8008l65.699 0.003906c2.1016 0 3.8008 1.6992 3.8008 3.8008 0 2.0977-1.6992 3.7969-3.8008 3.7969z"/>
  <path d="m63.199 86.699h-45.898c-2.1016 0-3.8008-1.6992-3.8008-3.8008 0-2.1016 1.6992-3.8008 3.8008-3.8008h45.898c2.1016 0 3.8008 1.6992 3.8008 3.8008 0 2.1016-1.6992 3.8008-3.8008 3.8008z"/>
 </g>
</svg>
